<svg xmlns="http://www.w3.org/2000/svg" viewBox="0 0 100 100" fill="#CC0000">
  <!-- Curved shield/trapezoid border -->
  <path fill-rule="evenodd" clip-rule="evenodd" d="M 8,12 C 8,9.5 10.5,8 14.5,8 H 85.5 C 89.5,8 92,9.5 92,12 L 87.5,70 C 86.8,76.5 83,81.5 74.5,82.5 C 71.5,82.8 63,83 50,83 C 37,83 28.5,82.8 25.5,82.5 C 17,81.5 13.2,76.5 12.5,70 Z M 16.5,14 L 20.8,69 C 21.2,74.5 24.2,77 30.5,77.8 C 33.2,78.2 41,78.5 50,78.5 C 59,78.5 66.8,78.2 69.5,77.8 C 75.8,77 78.8,74.5 79.2,69 L 83.5,14 Z" />
  <!-- Honda H Symbol inside -->
  <path d="M 23.5,18 H 32.5 C 32.5,18 31.8,25 31.8,32.5 V 45.5 H 68.2 V 32.5 C 68.2,25 67.5,18 67.5,18 H 76.5 C 76.5,18 75,30 75,41 V 68 C 75,72 77,73.5 78.5,74 H 68.5 C 67.5,72 66.5,69 66.5,63.5 V 52.5 H 33.5 V 63.5 C 33.5,69 32.5,72 31.5,74 H 21.5 C 23,73.5 25,72 25,68 V 41 C 25,30 23.5,18 23.5,18 Z" />
</svg>
